<?xml version="1.0" encoding="UTF-8" standalone="no" ?>
<!DOCTYPE svg PUBLIC "-//W3C//DTD SVG 1.1//EN" "http://www.w3.org/Graphics/SVG/1.1/DTD/svg11.dtd">
<svg xmlns="http://www.w3.org/2000/svg" xmlns:xlink="http://www.w3.org/1999/xlink" version="1.1" width="625.3275390625001" height="839.93" xml:space="preserve">
<desc>Created with Fabric.js 1.6.0-rc.1</desc>
<defs></defs>
<g style="stroke: none; stroke-width: 1; stroke-dasharray: none; stroke-linecap: butt; stroke-linejoin: miter; stroke-miterlimit: 10; fill: none; fill-rule: nonzero; opacity: 1;" transform="translate(10.000000000000114 193.80999999999995) rotate(270.05) scale(1.19 1.24)" >
  <polygon points="290.48,475.95 177.63,475.95 188.08,275.33 279.51,275.33 " style="stroke: none; stroke-width: 1; stroke-dasharray: none; stroke-linecap: butt; stroke-linejoin: miter; stroke-miterlimit: 10; fill: #0066c1; fill-rule: nonzero; opacity: 1;" transform="  matrix(1 0 0 1 0 0) "/>
  <rect x="188.08" y="221" rx="0" ry="0" width="91.43" height="26.12" style="stroke: none; stroke-width: 1; stroke-dasharray: none; stroke-linecap: butt; stroke-linejoin: miter; stroke-miterlimit: 10; fill: #0066c1; fill-rule: nonzero; opacity: 1;" transform=" matrix(1 0 0 1 0 0) "/>
  <rect x="203.49" y="247.12" rx="0" ry="0" width="60.6" height="28.21" style="stroke: none; stroke-width: 1; stroke-dasharray: none; stroke-linecap: butt; stroke-linejoin: miter; stroke-miterlimit: 10; fill: #ffffff; fill-rule: nonzero; opacity: 1;" transform=" matrix(1 0 0 1 0 0) "/>
  <rect x="203.49" y="475.95" rx="0" ry="0" width="60.6" height="28.21" style="stroke: none; stroke-width: 1; stroke-dasharray: none; stroke-linecap: butt; stroke-linejoin: miter; stroke-miterlimit: 10; fill: #ffffff; fill-rule: nonzero; opacity: 1;" transform=" matrix(1 0 0 1 0 0) "/>
  <rect x="175.02" y="60.08" rx="0" ry="0" width="26.12" height="52.24" style="stroke: none; stroke-width: 1; stroke-dasharray: none; stroke-linecap: butt; stroke-linejoin: miter; stroke-miterlimit: 10; fill: #0066c1; fill-rule: nonzero; opacity: 1;" transform=" matrix(1 0 0 1 0 0) "/>
  <rect x="201.14" y="28.73" rx="0" ry="0" width="26.12" height="83.59" style="stroke: none; stroke-width: 1; stroke-dasharray: none; stroke-linecap: butt; stroke-linejoin: miter; stroke-miterlimit: 10; fill: #0066c1; fill-rule: nonzero; opacity: 1;" transform=" matrix(1 0 0 1 0 0) "/>
  <rect x="227.26" y="7.84" rx="0" ry="0" width="26.12" height="104.49" style="stroke: none; stroke-width: 1; stroke-dasharray: none; stroke-linecap: butt; stroke-linejoin: miter; stroke-miterlimit: 10; fill: #0066c1; fill-rule: nonzero; opacity: 1;" transform=" matrix(1 0 0 1 0 0) "/>
  <rect x="253.39" y="39.18" rx="0" ry="0" width="26.12" height="73.14" style="stroke: none; stroke-width: 1; stroke-dasharray: none; stroke-linecap: butt; stroke-linejoin: miter; stroke-miterlimit: 10; fill: #0066c1; fill-rule: nonzero; opacity: 1;" transform=" matrix(1 0 0 1 0 0) "/>
  <rect x="310.86" y="90.38" rx="0" ry="0" width="26.12" height="52.24" style="stroke: none; stroke-width: 1; stroke-dasharray: none; stroke-linecap: butt; stroke-linejoin: miter; stroke-miterlimit: 10; fill: #0066c1; fill-rule: nonzero; opacity: 1;" transform=" matrix(1 0 0 1 0 0) "/>
  <polygon points="300.41,221 175.02,221 175.02,140.54 279.51,140.54 279.51,173.98 300.41,184.42 " style="stroke: none; stroke-width: 1; stroke-dasharray: none; stroke-linecap: butt; stroke-linejoin: miter; stroke-miterlimit: 10; fill: #0066c1; fill-rule: nonzero; opacity: 1;" transform="  matrix(1 0 0 1 0 0) "/>
  <circle cx="234.058" cy="324.968" r="18.808" style="stroke: none; stroke-width: 1; stroke-dasharray: none; stroke-linecap: butt; stroke-linejoin: miter; stroke-miterlimit: 10; fill: #ffffff; fill-rule: nonzero; opacity: 1;" transform="  matrix(1 0 0 1 0 0) "/>
  <rect x="182.86" y="78.37" rx="0" ry="0" width="10.45" height="15.67" style="stroke: none; stroke-width: 1; stroke-dasharray: none; stroke-linecap: butt; stroke-linejoin: miter; stroke-miterlimit: 10; fill: #ffffff; fill-rule: nonzero; opacity: 1;" transform=" matrix(1 0 0 1 0 0) "/>
  <rect x="235.1" y="52.24" rx="0" ry="0" width="10.45" height="15.67" style="stroke: none; stroke-width: 1; stroke-dasharray: none; stroke-linecap: butt; stroke-linejoin: miter; stroke-miterlimit: 10; fill: #ffffff; fill-rule: nonzero; opacity: 1;" transform=" matrix(1 0 0 1 0 0) "/>
  <rect x="261.22" y="67.92" rx="0" ry="0" width="10.45" height="15.67" style="stroke: none; stroke-width: 1; stroke-dasharray: none; stroke-linecap: butt; stroke-linejoin: miter; stroke-miterlimit: 10; fill: #ffffff; fill-rule: nonzero; opacity: 1;" transform=" matrix(1 0 0 1 0 0) "/>
  <rect x="208.98" y="62.69" rx="0" ry="0" width="10.45" height="15.67" style="stroke: none; stroke-width: 1; stroke-dasharray: none; stroke-linecap: butt; stroke-linejoin: miter; stroke-miterlimit: 10; fill: #ffffff; fill-rule: nonzero; opacity: 1;" transform=" matrix(1 0 0 1 0 0) "/>
  <rect x="318.69" y="108.67" rx="0" ry="0" width="10.45" height="15.67" style="stroke: none; stroke-width: 1; stroke-dasharray: none; stroke-linecap: butt; stroke-linejoin: miter; stroke-miterlimit: 10; fill: #ffffff; fill-rule: nonzero; opacity: 1;" transform=" matrix(1 0 0 1 0 0) "/>
  <path d="M 344.816 82.547 H 303.02 v 67.918 h 13.061 v 9.542 l -16.914 15.035 l -11.821 -5.91 v -36.43 h -13.061 v -12.539 h 13.061 V 31.347 h -26.122 V 0 h -41.796 v 20.898 h -26.122 v 31.347 h -26.122 v 67.918 h 13.061 v 12.539 h -13.061 v 96.131 h 13.061 v 26.122 h 15.412 v 12.539 h -15.014 l -11.265 216.294 h 26.279 V 512 h 76.278 v -28.212 h 26.824 L 286.93 267.494 h -14.995 v -12.539 h 15.412 v -26.122 h 20.898 v -40.889 l 23.51 -20.898 v -16.58 h 13.061 V 82.547 z M 258.612 132.702 h -10.449 v -12.539 h 10.449 V 132.702 z M 232.49 120.163 v 12.539 h -10.449 v -12.539 H 232.49 z M 271.673 104.49 h -10.449 V 47.02 h 10.449 V 104.49 z M 245.551 15.673 v 88.816 h -10.449 V 15.673 H 245.551 z M 219.429 36.571 v 67.918 H 208.98 V 36.571 H 219.429 z M 182.857 67.918 h 10.449 v 36.571 h -10.449 V 67.918 z M 195.918 120.163 h 10.449 v 12.539 h -10.449 V 120.163 z M 256.261 496.327 h -44.931 v -12.539 h 44.931 V 496.327 z M 234.057 335.935 c -6.05 0 -10.971 -4.921 -10.971 -10.971 c 0 -6.05 4.921 -10.971 10.971 -10.971 c 6.05 0 10.971 4.921 10.971 10.971 C 245.029 331.013 240.107 335.935 234.057 335.935 z M 282.205 468.114 h -40.311 V 350.431 c 10.879 -3.354 18.808 -13.502 18.808 -25.467 c 0 -14.691 -11.953 -26.645 -26.645 -26.645 c -14.692 0 -26.645 11.954 -26.645 26.645 c 0 11.965 7.929 22.112 18.808 25.467 v 117.684 h -40.333 l 9.633 -184.947 h 76.57 L 282.205 468.114 z M 256.261 267.494 h -44.931 v -12.539 h 44.931 V 267.494 z M 271.673 239.282 h -75.755 v -10.449 h 75.755 V 239.282 z M 292.571 213.159 H 182.857 v -64.784 h 88.816 v 30.444 l 20.898 10.448 V 213.159 z M 318.694 98.22 h 10.449 v 36.571 h -10.449 V 98.22 z" style="stroke: none; stroke-width: 1; stroke-dasharray: none; stroke-linecap: butt; stroke-linejoin: miter; stroke-miterlimit: 10; fill: rgb(0,0,0); fill-rule: nonzero; opacity: 1;" transform=" matrix(1 0 0 1 0 0) " stroke-linecap="round" />
</g>
  <g transform="translate(336.27 78.39) scale(2.91 2.56)">
   <text font-family="ADAMCG PRO" font-size="40" font-weight="bold" style="stroke: none; stroke-width: 1; stroke-dasharray: none; stroke-linecap: butt; stroke-linejoin: miter; stroke-miterlimit: 10; fill: #0066cc; fill-rule: nonzero; opacity: 1;" ><tspan x="-96.4" y="8.98" style="stroke: none; stroke-width: 0; stroke-dasharray: none; stroke-linecap: butt; stroke-linejoin: miter; stroke-miterlimit: 4; fill: #0066cc; fill-rule: ; opacity: 1;">E</tspan><tspan x="-73.13" y="8.98" style="stroke: none; stroke-width: 0; stroke-dasharray: none; stroke-linecap: butt; stroke-linejoin: miter; stroke-miterlimit: 4; fill: #0066cc; fill-rule: ; opacity: 1;">V</tspan><tspan x="-44.83" y="8.98" style="stroke: none; stroke-width: 0; stroke-dasharray: none; stroke-linecap: butt; stroke-linejoin: miter; stroke-miterlimit: 4; fill: #0066cc; fill-rule: ; opacity: 1;">O</tspan><tspan x="-10.89" y="8.98" style="stroke: none; stroke-width: 0; stroke-dasharray: none; stroke-linecap: butt; stroke-linejoin: miter; stroke-miterlimit: 4; fill: #0066cc; fill-rule: ; opacity: 1;">D</tspan><tspan x="16.1" y="8.98" style="stroke: none; stroke-width: 0; stroke-dasharray: none; stroke-linecap: butt; stroke-linejoin: miter; stroke-miterlimit: 4; fill: #0066cc; fill-rule: ; opacity: 1;">Y</tspan><tspan x="43.62" y="8.98" style="stroke: none; stroke-width: 0; stroke-dasharray: none; stroke-linecap: butt; stroke-linejoin: miter; stroke-miterlimit: 4; fill: #0066cc; fill-rule: ; opacity: 1;">N</tspan><tspan x="73.13" y="8.98" style="stroke: none; stroke-width: 0; stroke-dasharray: none; stroke-linecap: butt; stroke-linejoin: miter; stroke-miterlimit: 4; fill: #0066cc; fill-rule: ; opacity: 1;">E</tspan></text>
 </g>
  <g transform="translate(324.14 178.59) scale(2.76 2.53)">
   <text font-family="ADAMCG PRO" font-size="40" font-weight="bold" style="stroke: none; stroke-width: 1; stroke-dasharray: none; stroke-linecap: butt; stroke-linejoin: miter; stroke-miterlimit: 10; fill: #0066cc; fill-rule: nonzero; opacity: 1;" ><tspan x="-97.27" y="8.98" style="stroke: none; stroke-width: 0; stroke-dasharray: none; stroke-linecap: butt; stroke-linejoin: miter; stroke-miterlimit: 4; fill: #0066cc; fill-rule: ; opacity: 1;">A</tspan><tspan x="-69.47" y="8.98" style="stroke: none; stroke-width: 0; stroke-dasharray: none; stroke-linecap: butt; stroke-linejoin: miter; stroke-miterlimit: 4; fill: #0066cc; fill-rule: ; opacity: 1;">C</tspan><tspan x="-42.4" y="8.98" style="stroke: none; stroke-width: 0; stroke-dasharray: none; stroke-linecap: butt; stroke-linejoin: miter; stroke-miterlimit: 4; fill: #0066cc; fill-rule: ; opacity: 1;">A</tspan><tspan x="-14.61" y="8.98" style="stroke: none; stroke-width: 0; stroke-dasharray: none; stroke-linecap: butt; stroke-linejoin: miter; stroke-miterlimit: 4; fill: #0066cc; fill-rule: ; opacity: 1;">D</tspan><tspan x="12.38" y="8.98" style="stroke: none; stroke-width: 0; stroke-dasharray: none; stroke-linecap: butt; stroke-linejoin: miter; stroke-miterlimit: 4; fill: #0066cc; fill-rule: ; opacity: 1;">E</tspan><tspan x="35.64" y="8.98" style="stroke: none; stroke-width: 0; stroke-dasharray: none; stroke-linecap: butt; stroke-linejoin: miter; stroke-miterlimit: 4; fill: #0066cc; fill-rule: ; opacity: 1;">M</tspan><tspan x="69.75" y="8.98" style="stroke: none; stroke-width: 0; stroke-dasharray: none; stroke-linecap: butt; stroke-linejoin: miter; stroke-miterlimit: 4; fill: #0066cc; fill-rule: ; opacity: 1;">Y</tspan></text>
 </g>
</svg>